<mxfile host="app.diagrams.net" modified="2023-09-23T02:58:15.423Z" agent="Mozilla/5.0 (X11; Ubuntu; Linux x86_64; rv:109.0) Gecko/20100101 Firefox/117.0" etag="DDZVUz1pqSeSyG89j4C3" version="21.7.5" type="github">
  <diagram name="Page-1" id="XhZffeHGHaZp0kScym4Z">
    <mxGraphModel dx="1153" dy="638" grid="1" gridSize="10" guides="1" tooltips="1" connect="1" arrows="1" fold="1" page="1" pageScale="1" pageWidth="850" pageHeight="1100" math="0" shadow="0">
      <root>
        <mxCell id="0" />
        <mxCell id="1" parent="0" />
        <mxCell id="HAhBHMvmMXCrN667Cn8Z-1" value="BOOKS" style="rounded=0;whiteSpace=wrap;html=1;" vertex="1" parent="1">
          <mxGeometry x="300" y="140" width="140" height="40" as="geometry" />
        </mxCell>
        <mxCell id="HAhBHMvmMXCrN667Cn8Z-2" value="Order by" style="rhombus;whiteSpace=wrap;html=1;" vertex="1" parent="1">
          <mxGeometry x="330" y="230" width="80" height="80" as="geometry" />
        </mxCell>
        <mxCell id="HAhBHMvmMXCrN667Cn8Z-3" value="USER" style="rounded=0;whiteSpace=wrap;html=1;" vertex="1" parent="1">
          <mxGeometry x="300" y="350" width="140" height="40" as="geometry" />
        </mxCell>
        <mxCell id="HAhBHMvmMXCrN667Cn8Z-4" value="ADMIN" style="rounded=0;whiteSpace=wrap;html=1;" vertex="1" parent="1">
          <mxGeometry y="140" width="140" height="40" as="geometry" />
        </mxCell>
        <mxCell id="HAhBHMvmMXCrN667Cn8Z-5" value="ORDER" style="rounded=0;whiteSpace=wrap;html=1;" vertex="1" parent="1">
          <mxGeometry x="30" y="350" width="140" height="40" as="geometry" />
        </mxCell>
        <mxCell id="HAhBHMvmMXCrN667Cn8Z-6" value="ORDER DETAILS" style="rounded=0;whiteSpace=wrap;html=1;" vertex="1" parent="1">
          <mxGeometry x="30" y="600" width="140" height="40" as="geometry" />
        </mxCell>
        <mxCell id="HAhBHMvmMXCrN667Cn8Z-7" value="REVIEW" style="rounded=0;whiteSpace=wrap;html=1;" vertex="1" parent="1">
          <mxGeometry x="240" y="560" width="140" height="40" as="geometry" />
        </mxCell>
        <mxCell id="HAhBHMvmMXCrN667Cn8Z-8" value="WISHLIST" style="rounded=0;whiteSpace=wrap;html=1;" vertex="1" parent="1">
          <mxGeometry x="460" y="470" width="140" height="40" as="geometry" />
        </mxCell>
        <mxCell id="HAhBHMvmMXCrN667Cn8Z-9" value="makers" style="rhombus;whiteSpace=wrap;html=1;" vertex="1" parent="1">
          <mxGeometry x="490" y="330" width="80" height="80" as="geometry" />
        </mxCell>
        <mxCell id="HAhBHMvmMXCrN667Cn8Z-10" value="Order by" style="rhombus;whiteSpace=wrap;html=1;" vertex="1" parent="1">
          <mxGeometry x="180" y="120" width="80" height="80" as="geometry" />
        </mxCell>
        <mxCell id="HAhBHMvmMXCrN667Cn8Z-11" value="has" style="rhombus;whiteSpace=wrap;html=1;" vertex="1" parent="1">
          <mxGeometry x="180" y="260" width="80" height="80" as="geometry" />
        </mxCell>
        <mxCell id="HAhBHMvmMXCrN667Cn8Z-12" value="has" style="rhombus;whiteSpace=wrap;html=1;" vertex="1" parent="1">
          <mxGeometry x="60" y="440" width="80" height="80" as="geometry" />
        </mxCell>
        <mxCell id="HAhBHMvmMXCrN667Cn8Z-13" value="reviews" style="rhombus;whiteSpace=wrap;html=1;" vertex="1" parent="1">
          <mxGeometry x="180" y="410" width="80" height="80" as="geometry" />
        </mxCell>
        <mxCell id="HAhBHMvmMXCrN667Cn8Z-14" value="" style="endArrow=none;html=1;rounded=0;" edge="1" parent="1" source="HAhBHMvmMXCrN667Cn8Z-1">
          <mxGeometry relative="1" as="geometry">
            <mxPoint x="370" y="180" as="sourcePoint" />
            <mxPoint x="370" y="230" as="targetPoint" />
          </mxGeometry>
        </mxCell>
        <mxCell id="HAhBHMvmMXCrN667Cn8Z-15" value="N" style="resizable=0;html=1;whiteSpace=wrap;align=right;verticalAlign=bottom;" connectable="0" vertex="1" parent="HAhBHMvmMXCrN667Cn8Z-14">
          <mxGeometry x="1" relative="1" as="geometry" />
        </mxCell>
        <mxCell id="HAhBHMvmMXCrN667Cn8Z-17" value="" style="endArrow=none;html=1;rounded=0;entryX=0.5;entryY=0;entryDx=0;entryDy=0;exitX=0.5;exitY=1;exitDx=0;exitDy=0;" edge="1" parent="1" source="HAhBHMvmMXCrN667Cn8Z-2" target="HAhBHMvmMXCrN667Cn8Z-3">
          <mxGeometry relative="1" as="geometry">
            <mxPoint x="370" y="310" as="sourcePoint" />
            <mxPoint x="530" y="310" as="targetPoint" />
          </mxGeometry>
        </mxCell>
        <mxCell id="HAhBHMvmMXCrN667Cn8Z-18" value="" style="endArrow=none;html=1;rounded=0;exitX=1;exitY=0.5;exitDx=0;exitDy=0;entryX=0;entryY=0.5;entryDx=0;entryDy=0;" edge="1" parent="1" source="HAhBHMvmMXCrN667Cn8Z-10" target="HAhBHMvmMXCrN667Cn8Z-1">
          <mxGeometry relative="1" as="geometry">
            <mxPoint x="320" y="70" as="sourcePoint" />
            <mxPoint x="480" y="70" as="targetPoint" />
          </mxGeometry>
        </mxCell>
        <mxCell id="HAhBHMvmMXCrN667Cn8Z-19" value="" style="endArrow=none;html=1;rounded=0;exitX=0.5;exitY=0;exitDx=0;exitDy=0;entryX=0.25;entryY=1;entryDx=0;entryDy=0;" edge="1" parent="1" source="HAhBHMvmMXCrN667Cn8Z-11" target="HAhBHMvmMXCrN667Cn8Z-1">
          <mxGeometry relative="1" as="geometry">
            <mxPoint x="70" y="60" as="sourcePoint" />
            <mxPoint x="230" y="60" as="targetPoint" />
          </mxGeometry>
        </mxCell>
        <mxCell id="HAhBHMvmMXCrN667Cn8Z-20" value="" style="endArrow=none;html=1;rounded=0;exitX=0;exitY=0.5;exitDx=0;exitDy=0;entryX=0.75;entryY=1;entryDx=0;entryDy=0;" edge="1" parent="1" source="HAhBHMvmMXCrN667Cn8Z-13" target="HAhBHMvmMXCrN667Cn8Z-5">
          <mxGeometry relative="1" as="geometry">
            <mxPoint x="80" y="70" as="sourcePoint" />
            <mxPoint x="240" y="70" as="targetPoint" />
          </mxGeometry>
        </mxCell>
        <mxCell id="HAhBHMvmMXCrN667Cn8Z-21" value="" style="endArrow=none;html=1;rounded=0;exitX=1;exitY=0.5;exitDx=0;exitDy=0;entryX=0.5;entryY=1;entryDx=0;entryDy=0;" edge="1" parent="1" source="HAhBHMvmMXCrN667Cn8Z-13" target="HAhBHMvmMXCrN667Cn8Z-3">
          <mxGeometry relative="1" as="geometry">
            <mxPoint x="90" y="80" as="sourcePoint" />
            <mxPoint x="250" y="80" as="targetPoint" />
          </mxGeometry>
        </mxCell>
        <mxCell id="HAhBHMvmMXCrN667Cn8Z-22" value="" style="endArrow=none;html=1;rounded=0;exitX=1;exitY=0.5;exitDx=0;exitDy=0;entryX=0;entryY=0.5;entryDx=0;entryDy=0;" edge="1" parent="1" source="HAhBHMvmMXCrN667Cn8Z-4" target="HAhBHMvmMXCrN667Cn8Z-10">
          <mxGeometry relative="1" as="geometry">
            <mxPoint x="100" y="90" as="sourcePoint" />
            <mxPoint x="260" y="90" as="targetPoint" />
          </mxGeometry>
        </mxCell>
        <mxCell id="HAhBHMvmMXCrN667Cn8Z-23" value="" style="endArrow=none;html=1;rounded=0;exitX=0.5;exitY=1;exitDx=0;exitDy=0;entryX=0.5;entryY=0;entryDx=0;entryDy=0;" edge="1" parent="1" source="HAhBHMvmMXCrN667Cn8Z-9" target="HAhBHMvmMXCrN667Cn8Z-8">
          <mxGeometry relative="1" as="geometry">
            <mxPoint x="520" y="60" as="sourcePoint" />
            <mxPoint x="680" y="60" as="targetPoint" />
          </mxGeometry>
        </mxCell>
        <mxCell id="HAhBHMvmMXCrN667Cn8Z-24" value="" style="endArrow=none;html=1;rounded=0;exitX=0.5;exitY=1;exitDx=0;exitDy=0;entryX=0.5;entryY=0;entryDx=0;entryDy=0;" edge="1" parent="1" source="HAhBHMvmMXCrN667Cn8Z-12" target="HAhBHMvmMXCrN667Cn8Z-6">
          <mxGeometry relative="1" as="geometry">
            <mxPoint x="530" y="70" as="sourcePoint" />
            <mxPoint x="690" y="70" as="targetPoint" />
          </mxGeometry>
        </mxCell>
        <mxCell id="HAhBHMvmMXCrN667Cn8Z-25" value="" style="endArrow=none;html=1;rounded=0;exitX=0.5;exitY=1;exitDx=0;exitDy=0;entryX=0.5;entryY=0;entryDx=0;entryDy=0;" edge="1" parent="1" source="HAhBHMvmMXCrN667Cn8Z-13" target="HAhBHMvmMXCrN667Cn8Z-7">
          <mxGeometry relative="1" as="geometry">
            <mxPoint x="540" y="80" as="sourcePoint" />
            <mxPoint x="700" y="80" as="targetPoint" />
          </mxGeometry>
        </mxCell>
        <mxCell id="HAhBHMvmMXCrN667Cn8Z-26" value="" style="endArrow=none;html=1;rounded=0;exitX=0;exitY=0.5;exitDx=0;exitDy=0;entryX=0.5;entryY=0;entryDx=0;entryDy=0;" edge="1" parent="1" source="HAhBHMvmMXCrN667Cn8Z-11" target="HAhBHMvmMXCrN667Cn8Z-5">
          <mxGeometry relative="1" as="geometry">
            <mxPoint x="550" y="90" as="sourcePoint" />
            <mxPoint x="710" y="90" as="targetPoint" />
          </mxGeometry>
        </mxCell>
        <mxCell id="HAhBHMvmMXCrN667Cn8Z-27" value="" style="endArrow=none;html=1;rounded=0;exitX=1;exitY=0.5;exitDx=0;exitDy=0;entryX=0.25;entryY=0;entryDx=0;entryDy=0;" edge="1" parent="1" source="HAhBHMvmMXCrN667Cn8Z-11" target="HAhBHMvmMXCrN667Cn8Z-3">
          <mxGeometry relative="1" as="geometry">
            <mxPoint x="560" y="100" as="sourcePoint" />
            <mxPoint x="720" y="100" as="targetPoint" />
          </mxGeometry>
        </mxCell>
        <mxCell id="HAhBHMvmMXCrN667Cn8Z-28" value="" style="endArrow=none;html=1;rounded=0;exitX=1;exitY=0.5;exitDx=0;exitDy=0;entryX=0;entryY=0.5;entryDx=0;entryDy=0;" edge="1" parent="1" source="HAhBHMvmMXCrN667Cn8Z-3" target="HAhBHMvmMXCrN667Cn8Z-9">
          <mxGeometry relative="1" as="geometry">
            <mxPoint x="530" y="70" as="sourcePoint" />
            <mxPoint x="690" y="70" as="targetPoint" />
          </mxGeometry>
        </mxCell>
        <mxCell id="HAhBHMvmMXCrN667Cn8Z-29" value="" style="endArrow=none;html=1;rounded=0;exitX=0.5;exitY=0;exitDx=0;exitDy=0;entryX=0.5;entryY=1;entryDx=0;entryDy=0;" edge="1" parent="1" source="HAhBHMvmMXCrN667Cn8Z-12" target="HAhBHMvmMXCrN667Cn8Z-5">
          <mxGeometry relative="1" as="geometry">
            <mxPoint x="540" y="80" as="sourcePoint" />
            <mxPoint x="700" y="80" as="targetPoint" />
          </mxGeometry>
        </mxCell>
        <mxCell id="HAhBHMvmMXCrN667Cn8Z-30" value="1" style="text;html=1;align=center;verticalAlign=middle;resizable=0;points=[];autosize=1;strokeColor=none;fillColor=none;" vertex="1" parent="1">
          <mxGeometry x="155" y="128" width="30" height="30" as="geometry" />
        </mxCell>
        <mxCell id="HAhBHMvmMXCrN667Cn8Z-31" value="N" style="text;html=1;align=center;verticalAlign=middle;resizable=0;points=[];autosize=1;strokeColor=none;fillColor=none;" vertex="1" parent="1">
          <mxGeometry x="265" y="128" width="30" height="30" as="geometry" />
        </mxCell>
        <mxCell id="HAhBHMvmMXCrN667Cn8Z-32" value="N" style="text;html=1;align=center;verticalAlign=middle;resizable=0;points=[];autosize=1;strokeColor=none;fillColor=none;" vertex="1" parent="1">
          <mxGeometry x="365" y="318" width="30" height="30" as="geometry" />
        </mxCell>
        <mxCell id="HAhBHMvmMXCrN667Cn8Z-33" value="M" style="text;html=1;align=center;verticalAlign=middle;resizable=0;points=[];autosize=1;strokeColor=none;fillColor=none;" vertex="1" parent="1">
          <mxGeometry x="275" y="298" width="30" height="30" as="geometry" />
        </mxCell>
      </root>
    </mxGraphModel>
  </diagram>
</mxfile>
